<?xml version="1.0" encoding="utf-8" ?>
<svg xmlns="http://www.w3.org/2000/svg" xmlns:xlink="http://www.w3.org/1999/xlink" width="1322" height="988">
	<path fill="hsl(0, 80%, 60%)" d="M0 0L1320.87 0C1322.8 3.36952 1322 9.44338 1322 13.342L1322.01 780.797L1322 935.041C1322 942.521 1323.14 982.031 1321.6 986.59C1321.43 987.079 1321.12 987.562 1320.87 988L0 988L0 0Z" id="path-0"/>
	<path fill="hsl(137.508, 80%, 60%)" d="M414.738 103.896C412.338 90.9421 413.088 77.1097 420.785 65.9013C426.814 57.1236 436.104 51.121 446.585 49.2308C458.915 46.9661 472.47 48.6938 482.858 56.0266C491.251 61.9519 497.355 71.8718 498.996 82.0086C500.157 89.1807 498.946 96.4706 500.103 103.616C501.046 104.289 501.81 104.466 502.902 104.772C504.579 105.243 505.841 105.754 506.744 107.32C508.011 109.518 507.767 112.913 507.043 115.252C505.767 119.377 501.917 132.428 498.796 134.647C496.988 134.767 495.391 134.574 493.888 135.645C491.981 140.95 487.077 156.932 489.51 161.895C490.776 164.477 493.566 166.403 496.008 167.803C502.681 171.628 510.453 173.869 517.541 176.882C523.743 179.518 529.677 182.893 535.944 185.335C540.91 187.269 546.131 188.413 551.134 190.221C562.084 194.178 575.46 202.354 582.206 212.084C593.226 227.978 589.836 245.699 592.874 263.531C594.63 273.834 598.464 283.775 600.097 294.115C602.018 306.276 601.075 318.408 604.058 330.472C606.024 338.422 609.422 345.975 612.135 353.686C615.079 362.052 617.104 370.869 618.544 379.614C622.791 405.418 623.928 431.785 627.642 457.703C635.311 464.512 639.293 471.579 643.484 480.804C644.756 483.603 645.937 486.732 647.636 489.294C650.458 493.549 654.902 497.183 657.009 501.816C655.903 503.103 655.405 503.583 653.654 503.72C650.373 503.975 645.697 501.546 642.604 500.342L642.664 501.246C643.274 509.67 650.66 538.653 645.586 544.737C644.971 545.474 644.071 545.877 643.21 546.253C641.914 546.07 641.535 546.121 640.668 545.029C637.895 541.535 637.403 532.617 636.209 528.107C635.825 528.356 635.253 528.643 634.948 528.979C635.498 534.952 637.923 546.557 634.001 551.64C633.45 552.354 632.835 552.645 632.033 553.01C630.416 552.837 629.652 552.621 628.534 551.364C626.207 548.748 625.337 544.137 625.044 540.76C623.38 542.923 623.792 546.301 621.828 548.179C620.169 548.114 619.038 547.939 617.832 546.701C612.4 541.128 611.712 524.422 610.349 516.77L610.097 517.706C608.325 524.43 610.272 534.344 606.33 539.958C604.593 540.207 604.291 540.191 602.667 539.539C599.019 532.83 598.516 510.192 597.571 501.827C596.945 496.28 595.413 490.928 595.396 485.308C595.379 479.494 596.305 473.828 597.983 468.266C598.644 466.143 599.381 464.044 600.191 461.974C592.381 443.852 582.981 426.561 573.92 409.05C568.27 398.131 562.134 387.091 558.237 375.4C553.977 362.618 558.552 351.569 556.351 339.353C554.727 330.342 548.643 322.006 545.264 313.545C538.456 328.039 529.884 344.963 529.029 361.267C528.586 369.735 531.947 378.178 532.581 386.592C533.03 392.544 531.437 398.669 532.1 404.547C532.998 412.497 537.081 419.898 538.458 427.804C543.93 459.222 551.379 490.525 554.008 522.358C555.037 534.824 554.612 547.55 554.557 560.048C554.475 578.626 553.214 598.695 547.958 616.589C545.575 624.703 542.336 637.834 535.275 642.95C534.67 642.956 534.147 643.032 533.578 642.806L532.145 643.985C532.257 644.077 532.376 644.162 532.481 644.261C533.653 645.363 534.208 646.523 534.202 648.135C534.172 655.626 528.118 668.006 527.795 677.023C527.5 685.232 532.195 699.963 533.849 708.636C536.678 723.466 536.372 739.095 534.812 754.044C532.882 772.543 525.45 789.184 519.908 806.712C515.294 821.306 509.778 849.903 508.304 865.121C507.727 871.082 507.95 877.182 507.66 883.173C507.424 888.047 506.731 893.267 507.2 898.107C508.481 911.319 523.672 918.763 532.853 926.578C537.284 930.349 543.758 936.362 543.961 942.664C544.06 945.739 542.488 948.47 540.389 950.606C533.775 957.339 517.758 964.962 508.415 965.214C500.694 965.422 492.65 962.74 487.029 957.356C481.125 951.7 479.58 943.59 475.826 936.646C472.268 930.064 466.27 924.157 465.437 916.429C464.785 910.384 468.499 905.497 469.253 899.668C470.505 889.996 468.028 880.303 469.306 870.644C470.793 859.407 476.09 849.212 476.934 837.782C478.996 809.858 469.883 782.948 470.04 755.269C470.097 745.14 471.479 733.965 473.597 724.049C475.42 715.516 478.692 706.644 478.702 697.842C478.711 690.809 476.299 683.576 475.136 676.623C473.883 669.139 473.307 661.552 471.886 654.095C468.858 638.199 464.925 622.625 462.584 606.57C459.689 586.719 457.621 566.449 457.602 546.388C457.596 540.124 457.497 533.818 457.804 527.563C458.011 523.348 458.679 519.026 458.546 514.817C457.282 514.062 456.111 514.405 454.734 514.604L453.997 515.593C456.746 531.839 455.865 549.238 454.537 565.582C453.119 583.043 451.927 600.132 448.989 617.455C445.641 637.19 440.579 656.272 438.234 676.219C437.466 682.749 434.697 688.785 434.575 695.398C434.351 707.441 438.655 719.536 440.973 731.291C442.327 738.152 442.73 744.691 442.769 751.663C442.811 759.087 442.887 766.674 442.034 774.059C440.002 791.653 434.421 815.97 435.576 832.99C436.52 846.88 442.907 859.268 444.643 872.845C445.662 880.816 442.189 888.561 443.306 896.419C444.349 903.751 448.962 910.888 447.394 918.485C446.23 924.122 441.963 927.988 439.24 932.839C433.521 943.032 432.112 954.223 421.374 960.953C414.89 965.017 406.349 966.631 398.878 964.752C392.64 963.182 372.884 953.244 369.828 947.58C362.98 934.89 393.593 917.306 400.84 909.057C404.104 905.342 405.866 901.836 407.37 897.158C404.9 885.285 405.226 874.159 404.187 862.239C403.272 851.747 401.134 841.16 399.041 830.841C397.507 823.282 395.936 815.495 393.709 808.115C387.243 786.684 378.151 766.141 376.841 743.44C376.189 732.135 377.227 721.247 379.261 710.132C381.586 697.425 386.408 683.535 384.519 670.565C383.276 662.022 380.701 651.257 377.118 643.432C374.392 637.479 371.011 631.867 368.544 625.784C361.575 608.602 358.886 590.11 357.974 571.675C355.769 527.105 362.76 492.83 371 449.775C372.206 443.474 372.646 437.049 373.864 430.774C375.459 422.549 379.417 414.785 380.63 406.479C381.719 399.025 380.165 391.147 380.848 383.615C381.618 375.116 385.198 367.14 384.199 358.455C382.405 342.863 373.59 327.833 366.496 314.106C358.008 330.178 356.774 337.341 357.078 355.13C357.176 360.877 357.102 366.397 355.728 372.025C351.101 390.984 334.08 419.033 324.619 437.126C321.005 444.037 316.104 452.115 314.502 459.758C312.911 467.351 317.697 475.569 318.031 483.21C318.328 490.026 315.819 496.497 315.017 503.19C313.604 514.978 314.953 525.689 311.166 537.599C310.592 539.405 310.212 540.209 308.563 541.059L307.353 540.272C303.838 534.276 304.017 525.089 302.986 518.299C301.359 525.587 300.564 533.057 298.842 540.308C298.215 542.948 297.281 546.252 294.623 547.562C293.182 548.273 292.393 547.984 290.958 547.485C285.921 541.787 291.893 524.152 291.358 516.424L291.303 515.705C289.729 522.134 288.661 528.676 288.108 535.272C287.829 538.955 288.025 542.828 287.339 546.455C286.995 548.274 286.393 550.348 285.289 551.852C284.328 553.163 283.641 553.388 282.093 553.61C281.328 553.295 280.755 553.024 280.183 552.404C274.091 545.798 278.549 530.13 279.057 521.92L278.644 522.059C276.913 528.602 276.557 536.562 274.077 542.683C273.237 544.757 272.516 545.423 270.502 546.209C268.645 545.81 267.805 545.142 266.408 543.883C263.438 536.342 268.996 510.362 270.163 501.274C267.055 502.311 263.379 503.88 260.07 503.906C258.592 503.918 258.005 503.704 256.955 502.704C256.905 502.141 256.857 501.988 256.921 501.467C257.467 497.014 264.679 490.684 267.059 486.555C269.827 481.757 270.987 476.058 274.047 471.427C277.562 466.107 283.802 460.986 285.8 454.917C287.691 449.167 287.308 442.743 288.02 436.771C288.952 428.956 290.165 421.17 290.985 413.343C292.07 402.988 292.68 392.817 294.308 382.509C295.711 373.631 297.109 364.615 300.099 356.105C303.353 346.845 308.321 337.352 310.213 327.728C311.613 320.607 310.766 312.246 311.327 304.932C311.715 299.882 311.961 290.221 315.901 286.842C316.822 285.063 317.29 283.299 317.796 281.374C317.711 273.009 320.587 265.098 321.608 256.875C322.2 252.106 321.84 247.21 321.857 242.413C321.908 228.243 325.71 217.058 335.799 206.835C343.471 199.061 353.817 192.445 364.272 189.144C368.697 187.746 373.461 186.971 377.753 185.22C385.838 181.922 393.442 177.587 401.632 174.35C407.878 171.88 417.267 169.169 421.971 164.237C423.415 162.723 423.642 159.135 423.64 157.091C423.63 149.714 421.087 142.306 419.502 135.157C417.491 135.369 415.759 135.759 413.93 134.671C410.18 129.619 405.477 114.756 406.377 108.488C406.554 107.256 406.904 106.116 407.957 105.366C409.473 104.286 412.883 104.168 414.738 103.896Z" id="path-1"/>
	<path fill="hsl(275.016, 80%, 60%)" d="M533.762 497.875C534.795 499.367 535.792 500.882 536.752 502.421C556.734 534.853 551.371 582.465 542.105 617.513C539.883 625.915 535.708 633.758 533.726 642.159L533.578 642.806L532.145 643.985C531.282 646.27 530.417 648.608 529.208 650.736C527.127 654.399 522.533 660.884 518.088 661.737C516.911 661.963 515.962 661.767 515.053 660.972C510.53 657.01 513.01 644.302 514.806 639.495C518.326 630.072 524.768 622.041 528.375 612.664C537.864 587.994 540.145 559.033 538.081 532.863C537.162 521.209 535.198 509.494 533.762 497.875Z" id="path-2"/>
	<path fill="hsl(52.524, 80%, 60%)" d="M317.796 281.374L318.035 280.653C319.857 275.26 325.148 267.465 330.275 264.787C330.663 264.584 330.953 264.51 331.382 264.366C332.057 266.511 328.684 272.686 327.869 274.918C325.686 280.901 324.044 287.417 323.054 293.703C321.976 300.553 321.792 307.631 321.899 314.555C321.953 318.054 323.517 325.19 322.161 328.029C321.111 328.001 321.212 328.222 320.414 327.338C314.721 321.036 314.092 301.301 315.021 292.788C315.239 290.797 315.586 288.819 315.901 286.842C316.822 285.063 317.29 283.299 317.796 281.374Z" id="path-3"/>
	<path fill="hsl(190.03200000000004, 80%, 60%)" d="M634.948 528.979C633.934 526.76 634.556 522.898 634.87 520.525C635.922 522.855 635.951 525.586 636.209 528.107C635.825 528.356 635.253 528.643 634.948 528.979Z" id="path-4"/>
	<path fill="hsl(327.5400000000001, 80%, 60%)" d="M403.286 205.376C411.206 204.745 419.802 204.853 427.653 206.025C433.494 206.898 439.236 208.516 445.172 208.507L449.299 213.436C450.406 227.667 450.748 241.821 451.173 256.077C451.384 263.157 452.128 270.378 451.596 277.446C451.31 281.242 450.765 284.294 449.083 287.726C434.939 288.82 420.708 288.819 406.607 290.024C399.432 290.801 390.788 291.122 384.159 287.778C370.92 281.099 369.507 262.879 363.708 250.962C362.065 247.588 358.043 244.256 357.116 240.714C356.764 239.368 357.411 238.265 358.199 237.21C360.078 234.695 362.692 232.427 364.81 230.08C375.773 217.926 386.653 208.445 403.286 205.376Z" id="path-5"/>
	<path fill="hsl(105.048, 80%, 60%)" d="M466.057 210.05C485.98 205.749 508.343 201.512 526.647 213.194C537.425 220.073 546.54 231.409 555.328 240.661C538.508 259.568 544.176 289.717 514.769 291.312C503.532 291.921 491.942 290.078 480.704 289.521L478.999 290.226C478.88 291.064 478.771 291.787 478.814 292.637C475.965 292.456 473.229 292.481 470.38 292.653C470.117 291.753 469.793 290.874 469.483 289.989L467.728 289.312C465.703 289.116 464.534 288.897 462.822 287.77C462.116 286.905 461.81 286.367 461.628 285.244C460.492 278.263 461.386 269.652 461.402 262.514C461.432 248.266 460.581 233.282 462.021 219.132C462.389 215.514 464.018 212.973 466.057 210.05Z" id="path-6"/>
	<path fill="hsl(242.55600000000004, 80%, 60%)" d="M467.728 289.312C471.297 289.152 477.312 288.54 480.704 289.521L478.999 290.226C478.88 291.064 478.771 291.787 478.814 292.637C475.965 292.456 473.229 292.481 470.38 292.653C470.117 291.753 469.793 290.874 469.483 289.989L467.728 289.312Z" id="path-7"/>
	<path fill="hsl(20.064000000000078, 80%, 60%)" d="M512.282 454.802C512.467 454.993 512.663 455.174 512.837 455.375C515.789 458.786 517.133 467.961 518.397 472.498C526.853 502.839 534.448 533.5 532.695 565.31C531.572 585.692 526.399 620.642 510.468 634.901C509.988 635.286 509.702 635.539 509.214 635.861C507.453 637.024 504.785 637.551 502.736 636.972C499.76 636.13 497.702 633.009 496.219 630.472C491.639 622.635 492.279 612.224 491.99 603.414C490.356 553.455 499.375 502.891 512.282 454.802Z" id="path-8"/>
	<path fill="hsl(157.57200000000012, 80%, 60%)" d="M399.774 454.686C402.298 456.569 408.847 488.006 409.783 492.804C415.067 519.884 429.4 610.714 414.816 631.784C413.344 633.912 411.32 636.105 408.618 636.473C406.728 636.73 405.614 636.186 404.129 635.102L403.563 634.689C395.18 628.669 391.246 618.781 387.994 609.297C374.028 568.579 379.869 521.836 391.15 481.173C393.579 472.417 395.774 462.848 399.774 454.686Z" id="path-9"/>
	<path fill="hsl(295.08000000000015, 80%, 60%)" d="M393.948 681.85C394.457 682.336 394.573 682.383 394.945 683.106C395.852 684.867 396 687.781 396.504 689.786C400.286 704.803 402.632 719.986 405.552 735.18C411.17 764.409 418.104 793.449 422.106 822.97C423.213 831.13 426.288 854.076 423.621 860.828C422.306 862.02 422.225 862.008 420.448 862.177C418.036 861.121 417.5 861.083 416.194 858.853C409.736 829.779 394.418 803.551 387.345 774.637C380.016 744.672 377.251 709.323 393.948 681.85Z" id="path-10"/>
	<path fill="hsl(72.58800000000019, 80%, 60%)" d="M519.209 684.371C520.66 685.686 521.995 686.91 522.824 688.724C529.163 702.59 530.723 716.222 530.744 731.243C530.755 738.538 531.03 746.027 530.275 753.287C527.361 781.292 514.919 807.42 505.099 833.462C501.815 842.17 500.125 851.308 496.793 859.922C496.221 861.089 495.394 862.105 494.093 862.496C492.459 862.988 491.521 862.654 490.038 861.989C489.651 861.371 489.331 860.841 489.127 860.134C484.359 843.637 502.737 762.396 506.473 742.907C509.432 727.474 512.597 697.616 519.209 684.371Z" id="path-11"/>
	<path fill="hsl(210.096, 80%, 60%)" d="M471.501 391.084C478.365 390.849 487.632 391.178 494.057 393.773C496.09 394.594 497.815 395.542 498.638 397.68C503.416 410.1 482.051 470.91 475.558 484.267C474.045 486.74 472.505 489.196 470.936 491.634C469.199 494.289 468.059 496.247 464.827 496.933C463.062 496.388 462.122 495.696 461.081 494.142C459.268 491.433 458.129 487.94 457.823 484.706C456.555 471.319 458.939 455.633 459.645 442.047C460.266 430.101 459.598 414.282 462.151 402.896C463.379 397.419 466.975 393.988 471.501 391.084Z" id="path-12"/>
	<path fill="hsl(347.60400000000004, 80%, 60%)" d="M433.444 389.979C436.021 389.57 438.906 389.708 441.527 389.635C444.005 391.355 447.362 393.254 448.91 395.917C451.284 400.003 452.31 405.946 452.857 410.581C454.303 422.832 453.52 435.423 453.982 447.745C454.378 458.301 455.944 469.109 455.508 479.651C455.318 484.274 454.574 488.252 453.312 492.71C451.546 494.311 449.658 495.79 447.818 497.305C446.158 495.503 444.684 493.475 443.157 491.557C433.093 477.906 418.684 431.731 416.09 414.785C415.012 407.744 414.862 400.682 415.899 393.632C421.793 392.55 427.49 390.828 433.444 389.979Z" id="path-13"/>
	<path fill="hsl(125.11200000000008, 80%, 60%)" d="M352.628 247.428C354.135 248.254 355.503 249.185 356.414 250.687C364.281 263.67 362.727 304.08 358.291 318.906C355.365 328.686 344.601 344.283 335.597 349.181C335.047 348.823 334.868 348.759 334.418 348.159C332.957 346.212 332.134 342.886 331.391 340.585C327.642 328.977 325.903 318.867 326.224 306.651C326.752 286.538 337.824 261.407 352.628 247.428Z" id="path-14"/>
	<path fill="hsl(262.62000000000035, 80%, 60%)" d="M559.264 247.774C572.148 260.098 582.894 281.564 585.264 299.023C587.45 315.136 586.633 336.494 576.357 349.87C572.077 348.961 563.287 336.563 560.838 332.857C544.982 308.863 549.885 278.154 555.238 251.756L559.264 247.774Z" id="path-15"/>
	<path fill="hsl(40.128000000000156, 80%, 60%)" d="M507.675 305.201C510.981 305.284 514.117 306.993 517.336 307.748C521.653 308.761 525.955 308.577 530.35 308.435C527.668 313.483 523.864 318.24 522.852 323.928C526.483 324.43 530.217 324.519 533.878 324.742C531.042 329.339 527.966 332.709 524.11 336.435C525.164 338.247 526.386 339.98 527.539 341.731C527.766 349.764 526.241 353.525 522.312 360.393C524.061 367.227 523.12 372.484 521.903 379.279C524 384.504 526.025 389.639 526.428 395.312C527.252 406.92 521.538 415.093 514.287 423.393C509.42 428.714 505.42 434.687 501.604 440.785C501.038 424.053 502.107 407.474 508.024 391.685C503.825 380.125 505.238 376.303 507.967 364.94L504.441 355.097C504.973 352.404 505.982 349.832 506.666 347.174C507.48 344.01 507.813 341.865 506.072 338.938C505.471 337.928 504.787 336.901 504.419 335.775C503.224 332.12 506.26 327.031 508.002 323.982C506.643 322.286 505.061 320.725 503.58 319.132L503.647 310.315L507.675 305.201Z" id="path-16"/>
	<path fill="hsl(177.63599999999997, 80%, 60%)" d="M402.61 304.609C403.121 304.559 403.324 304.53 403.881 304.531C405.749 304.536 406.762 305 407.993 306.449C409.759 308.527 409.684 312.066 409.176 314.566C408.61 317.354 406.825 320.7 406.58 323.408C406.306 326.434 408.911 330.204 408.79 333.418C408.675 336.477 406.125 339.49 406.375 342.564C406.732 346.93 408.113 351.197 408.082 355.613C408.056 359.191 405.065 363.165 405.262 364.815C405.71 368.569 408.228 370.584 408.161 375.738C408.089 381.274 406.194 386.738 406.695 392.294C407.169 397.54 409.036 402.815 410.113 407.976C411.923 416.65 412.653 428.043 411.534 436.825L410.815 437.3C406.74 434.045 403.149 427.507 399.762 423.361C395.355 418.464 391.056 413.533 388.827 407.222C385.203 396.962 387.238 386.882 391.873 377.439C390.346 370.871 390.602 365.758 391.289 359.094C387.601 355.013 386.601 351.095 385.176 345.9C385.834 343.351 386.755 340.86 387.336 338.292C388.595 332.725 383.096 329.852 380.369 325.591L379.979 324.974C383.821 324.334 387.552 322.971 391.254 321.783C387.948 317.311 385.374 312.23 383.256 307.105C391.002 308.727 395.487 307.485 402.61 304.609Z" id="path-17"/>
	<path fill="hsl(315.14400000000023, 80%, 60%)" d="M594.188 332.101C611.457 348.406 617.156 391.514 618.454 414.48C618.803 420.649 620.336 446.219 616.7 450.282L615.552 450.218L614.566 447.603C612.09 442.489 610.564 436.832 608.267 431.6C598.59 409.556 588.88 389.416 585.239 365.252C583.126 351.225 585.934 343.359 594.188 332.101Z" id="path-18"/>
	<path fill="hsl(92.65200000000004, 80%, 60%)" d="M317.547 331.45C319.779 332.767 321.805 336.529 323.025 338.771C333.508 358.034 322.548 389.161 314.329 408.092C309.33 419.606 302.738 431.299 299.242 443.335L299.017 444.13C297.913 447.339 296.675 450.515 295.502 453.7C290.1 415.922 294.688 362.92 317.547 331.45Z" id="path-19"/>
	<path fill="hsl(230.1600000000003, 80%, 60%)" d="M378.591 498.058C379.897 499.539 376.835 515.576 376.495 518.83C374.218 540.658 373.542 554.988 376.14 576.953C377.654 589.757 380.826 603.384 385.912 615.255C390.645 626.3 398.854 635.828 400.068 648.097C400.483 652.294 400.574 657.045 397.786 660.47C395.909 661.452 394.727 661.446 392.634 661.329C392.496 661.234 392.355 661.144 392.221 661.045C377.557 650.237 367.917 609.59 365.451 591.932C361.578 564.197 360.88 521.563 378.591 498.058Z" id="path-20"/>
	<path fill="hsl(7.66800000000012, 80%, 60%)" d="M525.268 192.469C526.04 192.439 526.813 192.413 527.585 192.392C539.605 192.084 550.704 200.61 558.985 208.604C572.128 221.293 581.484 243.803 581.801 262.157C578.177 259.318 574.864 256.576 571.806 253.1C555.628 234.166 543.525 213.664 519.222 203.925C515.075 202.264 510.948 200.63 506.522 199.888C512.692 197.208 519.106 195.249 525.268 192.469Z" id="path-21"/>
	<path fill="hsl(145.17600000000039, 80%, 60%)" d="M415.6 486.257C418.005 486.989 425.025 496.797 427.289 499.157C432.062 504.132 437.503 508.468 442.064 513.661C444.508 516.442 446.522 519.505 447.654 523.051C453.76 542.194 446.594 574.774 445.262 594.89C444.827 597.296 444.058 599.667 443.398 602.02C442.746 591.62 439.677 580.996 437.464 570.808C431.252 542.202 423.801 514.34 415.6 486.257Z" id="path-22"/>
	<path fill="hsl(282.6840000000002, 80%, 60%)" d="M380.887 191.139C386.859 190.678 400.23 197.07 406.523 199.075C403.254 200.02 399.952 200.359 396.684 201.49C370.904 210.407 359.367 228.143 343.123 248.18C339.349 253.014 335.233 257.052 330.463 260.907C330.282 247.046 335.693 231.049 343.108 219.547C351.428 206.64 365.648 194.487 380.887 191.139Z" id="path-23"/>
	<path fill="hsl(60.19200000000001, 80%, 60%)" d="M496.884 488.011C496.568 496.706 488.421 520.128 485.755 530.447C480.988 548.893 477.043 567.425 473.271 586.095C472.635 589.243 472.13 595.384 469.73 597.615L468.908 595.632C468.157 587.508 466.764 579.458 466.076 571.329C464.639 554.354 464.809 538.216 465.808 521.258C471.56 512.797 480.412 505.47 487.497 498.046C490.696 494.695 493.299 490.972 496.884 488.011Z" id="path-24"/>
	<path fill="hsl(197.70000000000027, 80%, 60%)" d="M566.247 358.267L573.569 358.369C576.181 360.947 578.579 362.509 581.825 364.179C584.39 377.162 586.29 389.643 590.955 402.134C597.612 419.957 610.039 439.289 612.454 457.996C612.55 458.736 612.593 458.314 611.928 459.176L608.795 459.296C603.817 450.133 598.892 440.812 593.667 431.774C584.668 416.21 563.797 385.023 561.841 367.964C561.365 363.811 563.793 361.255 566.247 358.267Z" id="path-25"/>
	<path fill="hsl(335.2080000000001, 80%, 60%)" d="M338.864 357.572C340.685 357.415 342.661 357.157 344.453 357.62C346.366 358.114 347.899 359.371 348.812 361.116C357.782 378.265 311.276 436.071 306.069 455.276C305.632 456.071 304.874 457.083 304.178 457.655C302.903 458.702 301.925 458.928 300.368 458.741C299.786 457.656 299.692 456.913 299.826 455.677C301.267 442.391 315.053 418.004 320.281 404.196C322.52 398.282 325.041 391.873 326.394 385.692C327.9 378.811 328.287 370.709 330.713 364.165C331.396 362.321 337.121 358.928 338.864 357.572Z" id="path-26"/>
	<path fill="hsl(112.71600000000035, 80%, 60%)" d="M496.157 511.862C496.459 515.786 494.086 520.711 493.363 524.668C491.81 533.165 490.726 541.96 489.424 550.521C487.346 564.182 486.263 578.907 485.848 592.719C485.498 604.364 486.001 616.159 489.118 627.461C491.035 634.41 493.998 640.858 494.371 648.191C494.6 652.695 494.264 657.622 491.011 661.064C488.878 663.321 487.433 664.116 484.307 664.172C483.058 664.039 481.636 663.941 480.503 663.363C477.671 661.918 476.173 658.398 475.428 655.49C470.887 637.76 487.527 526.651 496.157 511.862Z" id="path-27"/>
	<path fill="hsl(250.22400000000016, 80%, 60%)" d="M418.645 522.368L419.843 521.073C421.925 527.92 422.882 534.975 424.31 541.969C429.162 565.724 432.924 589.32 435.84 613.368C437.229 624.826 439.229 636.767 438.487 648.338C438.281 651.552 437.644 654.153 436.144 657.028C434.758 659.685 432.495 663.146 429.448 663.946C427.661 664.415 425.981 663.827 424.512 662.797C422.343 661.276 420.671 659 419.026 656.954C416.848 635.134 425.147 629.82 426.439 611.576C428.671 580.082 422.783 552.951 418.645 522.368Z" id="path-28"/>
	<path fill="hsl(27.732000000000426, 80%, 60%)" d="M435.925 291.212C438.779 290.864 441.743 290.558 444.412 291.865C448.789 294.01 451.755 298.704 453.143 303.252C454.473 307.611 455.156 313.549 452.775 317.627C448.874 324.307 437.365 326.538 430.414 328.34C425.891 329.761 421.561 330.376 416.836 330.65C415.924 329.117 414.663 327.724 413.551 326.33C413.892 320.667 414.842 314.848 417.055 309.597C420.796 300.718 427.127 294.883 435.925 291.212Z" id="path-29"/>
	<path fill="hsl(165.2400000000007, 80%, 60%)" d="M470.38 292.653C473.229 292.481 475.965 292.456 478.814 292.637C479.73 292.879 480.634 293.135 481.511 293.499C488.797 296.521 495.368 306.761 498.048 313.849C499.459 317.583 501.622 324.875 499.512 328.618C498.662 330.126 497.473 330.875 495.808 331.235C487.129 333.116 468.533 324.765 461.287 320.009C461.058 319.354 460.85 318.692 460.665 318.022C459.037 312.077 459.86 303.6 463.018 298.219C465.083 294.702 466.574 293.664 470.38 292.653Z" id="path-30"/>
	<path fill="hsl(302.7480000000005, 80%, 60%)" d="M436.166 355.862C440.14 355.467 444.381 355.805 448.383 355.847C451.013 358.008 452.744 359.443 453.406 362.987C454.431 368.473 453.015 375.021 449.852 379.613C445.47 385.974 437.492 386.511 430.525 387.873C425.71 387.92 421.643 386.066 417.29 384.225C412.683 376.955 411.647 372.482 411.741 363.957C419.696 357.374 426.288 356.648 436.166 355.862Z" id="path-31"/>
	<path fill="hsl(80.25600000000031, 80%, 60%)" d="M466.75 356.368C466.884 356.358 467.019 356.346 467.154 356.339C479.133 355.646 492.331 356.845 501.62 364.972C501.741 369.343 501.442 373.939 500.077 378.119C499.039 381.3 497.156 384.186 494.11 385.72C493.508 386.253 492.886 386.795 492.193 387.208C488.553 389.378 480.132 388.673 476.103 387.741C470.618 386.473 465.817 383.604 462.885 378.678C460.353 374.423 458.988 368.701 460.361 363.863C461.554 359.661 463.09 358.358 466.75 356.368Z" id="path-32"/>
	<path fill="hsl(217.76400000000012, 80%, 60%)" d="M525.846 423.734C527.976 426.249 528.378 432.393 529.143 435.745C532.783 451.684 537.681 467.463 542.169 483.184C543.443 487.648 545.353 492.038 546.365 496.547C547.753 502.73 548.285 509.192 548.427 515.514L548.002 515.929L546.744 512.48C546.422 506.714 526.594 478.614 522.906 470.248C518.7 460.709 518.092 447.332 520.724 437.252C521.921 432.671 524.102 428.146 525.846 423.734Z" id="path-33"/>
	<path fill="hsl(355.27199999999993, 80%, 60%)" d="M385.128 423.475C388.045 425.326 390.992 434.725 391.801 438.396C395.671 455.968 389.396 471.348 379.726 485.617C377.226 489.305 374.19 492.803 371.92 496.618C369.245 501.114 367.97 506.325 365.134 510.821C364.883 512.5 364.545 514.098 364.096 515.735C359.541 505.958 383.092 440.212 385.128 423.475Z" id="path-34"/>
	<path fill="hsl(132.78000000000065, 80%, 60%)" d="M425.105 165.662C427.344 167.329 426.472 170.95 426.828 173.464C428.041 182.053 432.34 191.336 435.545 199.404C424.096 198.876 412.739 197.133 401.998 193.028C396.264 191.661 389.898 189.499 384.432 187.263L384.352 186.53C388.37 181.326 405.868 177.032 412.637 173.691C417.139 171.47 421.116 168.686 425.105 165.662Z" id="path-35"/>
	<path fill="hsl(270.28800000000047, 80%, 60%)" d="M487.394 166.764C499.331 176.481 515.677 180.372 529.101 187.753C523.076 188.868 516.931 191.445 511.087 193.377C500.831 198.332 488.048 200.206 476.8 200.626C482.943 190.738 484.635 177.882 487.394 166.764Z" id="path-36"/>
	<path fill="hsl(47.79600000000028, 80%, 60%)" d="M462.21 330.376C471.36 330.365 481.483 331.294 490.036 334.644C496.292 337.094 499.12 340.073 501.765 346.235C500.805 348.948 499.919 351.565 499.365 354.398C493.694 355.648 470.968 354.124 465.48 352.201C463.103 351.368 461.229 349.881 460.219 347.526C458.205 342.828 460.351 334.902 462.21 330.376Z" id="path-37"/>
	<path fill="hsl(185.3040000000001, 80%, 60%)" d="M443.918 329.243C444.773 329.107 445.623 328.979 446.487 328.911C449.533 328.671 451.329 330.602 453.538 332.411C453.786 337.054 453.662 341.755 453.686 346.406C452.552 348.237 451.114 349.753 449.676 351.344C440.717 352.158 431.788 352.964 422.793 353.28C420.559 353.27 417.741 353.464 415.697 352.479C413.883 351.605 412.456 349.983 411.92 348.031C411.255 345.609 412.061 343.067 413.416 341.037C419.41 332.055 434.269 331.241 443.918 329.243Z" id="path-38"/>
	<path fill="hsl(322.8120000000008, 80%, 60%)" d="M430.165 711.327C438.329 728.905 440.414 751.662 438.162 770.771C437.574 775.753 436.233 780.563 435.298 785.479C434.86 787.781 435.079 790.191 434.568 792.444C434.146 794.308 433.798 794.284 432.228 795.227C431.112 789.742 431.326 784.099 430.402 778.604C428.362 766.484 424.48 754.715 423.296 742.4C422.381 732.884 423.93 718.913 430.165 711.327Z" id="path-39"/>
	<path fill="hsl(100.32000000000062, 80%, 60%)" d="M481.988 712.083L483.25 712.631C497.381 733.127 482.659 772.396 480.266 795.559C479.237 795.284 478.882 794.89 478.18 794.11C476.878 789.876 476.924 785.492 476.349 781.135C475.38 773.79 473.727 766.589 473.46 759.157C473.054 747.873 477.005 721.805 481.988 712.083Z" id="path-40"/>
	<path fill="hsl(237.82800000000043, 80%, 60%)" d="M481.944 161.183C482.366 161.572 482.505 162.082 482.734 162.6C481.893 170.949 477.298 192.991 471.446 198.18C468.39 200.89 465.573 200.685 461.748 200.578C460.207 197.667 461.904 182.114 462.425 177.927C462.612 176.421 462.989 171.511 464.124 170.454C465.336 169.325 470.528 168.06 472.31 167.346C475.978 165.877 478.86 163.614 481.944 161.183Z" id="path-41"/>
	<path fill="hsl(15.33600000000024, 80%, 60%)" d="M428.605 160.45C436.294 164.187 439.709 169.352 449.109 169.845C449.582 180.109 450.336 190.359 451.369 200.582C448.454 200.657 445.325 200.973 442.748 199.355C433.321 193.439 430.766 170.715 428.605 160.45Z" id="path-42"/>
	<path fill="hsl(152.84400000000005, 80%, 60%)" d="M581.015 262.374C581.302 262.557 581.623 262.722 581.793 263.045C583.259 265.828 584.595 266.604 586.861 268.808C590.703 272.545 593.602 277.636 595.355 282.664C600.708 298.025 598.637 314.849 591.754 329.234C591.164 330.271 590.59 330.88 589.69 331.66C588.46 328.791 590.393 320.809 590.662 317.402C591.086 312.025 590.803 306.692 590.349 301.329C589.569 292.118 587.97 282.744 584.349 274.19C583.14 271.334 581.2 268.627 580.168 265.747C579.642 264.276 580.341 263.679 581.015 262.374Z" id="path-43"/>
	<path fill="hsl(290.35200000000077, 80%, 60%)" d="M496.108 456.113C497.366 462.793 499.337 470.081 497.473 476.818C495.039 485.614 480.913 498.067 473.156 502.347L471.823 501.705C473.134 497.358 480.15 488.003 482.819 483.133C487.572 474.463 490.811 464.298 496.108 456.113Z" id="path-44"/>
	<path fill="hsl(67.86000000000058, 80%, 60%)" d="M418.002 456.917C422.816 464.768 426.096 473.625 430.344 481.799C433.824 488.497 438.255 494.817 441.951 501.426L441.141 502.701C434.396 498.707 421.998 487.928 418.2 481.044C414.053 473.53 415.72 464.732 418.002 456.917Z" id="path-45"/>
	<path fill="hsl(205.3680000000004, 80%, 60%)" d="M356.613 197.249L357.18 197.272L357.697 197.844C353.341 202.528 348.23 206.434 343.932 211.23C334.589 221.656 331.029 236.56 327.163 249.674L326.662 249.432C324.792 242.828 324.889 234.102 326.798 227.515C331.245 212.177 343.43 204.367 356.613 197.249Z" id="path-46"/>
	<path fill="hsl(342.8760000000002, 80%, 60%)" d="M552.315 198.047C561.17 199.271 570.736 206.258 576.544 212.776C586.634 224.1 586.041 237.38 585.241 251.635C583.419 246.255 582.184 240.698 580.377 235.323C575.255 220.083 565.678 207.029 552.315 198.047Z" id="path-47"/>
	<path fill="hsl(120.38400000000001, 80%, 60%)" d="M418.645 522.368C417.845 518.367 416.904 514.343 416.547 510.274L416.982 510.379C418.694 513.752 419.193 517.39 419.843 521.073L418.645 522.368Z" id="path-48"/>
	<path fill="hsl(257.89200000000073, 80%, 60%)" d="M873.079 130.852C875.822 134.107 875.408 144.26 875.479 148.453C875.776 165.949 873.393 183.531 873.305 201.064C873.243 213.298 873.846 225.523 873.973 237.754C874.4 269.476 874.517 301.202 874.324 332.926C862.863 319.767 852.955 303.654 846.166 287.589C839.11 273.62 837.773 255.58 839.529 240.175C840.342 233.042 842.449 224.531 840.16 217.505C837.146 208.25 814.374 206.369 805.842 201.577C802.471 199.684 799.895 197.313 798.892 193.472C796.532 184.433 837.504 173.442 844.702 170.083C863.596 161.267 863.498 146.656 873.079 130.852Z" id="trapezius-posterior-left"/>
	<path fill="hsl(35.400000000000546, 80%, 60%)" d="M884.711 131.897C886.38 132.484 887.705 133.148 888.731 134.66C890.284 136.948 891.089 139.995 892.026 142.579C895.659 152.593 899.594 160.8 908.736 166.931C919.776 174.333 954.299 180.922 959.377 190.482C960.137 191.914 960.03 193.31 959.449 194.789C955.178 205.655 931.772 208.256 921.822 212.189C919.856 215.452 918.111 218.367 917.7 222.252C917.062 228.302 918.821 234.16 919.736 240.09C922.008 254.805 919.897 271.144 913.96 284.788C911.161 297.666 893.594 323.271 884.188 332.735C884.032 318.122 884.819 303.685 885.017 289.106C885.221 274.116 884.811 259.105 885.235 244.12C885.659 229.171 886.664 214.386 886.622 199.41C886.56 176.872 880.697 154.446 884.711 131.897Z" id="trapezius-posterior-right"/>
	<path fill="hsl(172.90800000000036, 80%, 60%)" d="M946.321 406.333L948.194 406.722C952.829 412.454 948.242 425.403 949.054 432.708C950.498 445.693 959.321 456.493 963.466 468.676C969.344 485.958 964.307 510.823 956.348 527.085C945.077 519.911 934.249 518.292 921.914 514.443C907.717 510.798 895.417 504.8 887.02 492.409C886.985 489.585 886.995 486.764 887.497 483.976C891.076 464.113 899.422 448.978 912.67 433.911C916.828 429.182 920.965 424.419 925.867 420.433C932.194 415.288 939.613 411.018 946.321 406.333Z" id="gluteus-maximus-right"/>
	<path fill="hsl(310.41600000000017, 80%, 60%)" d="M809.256 405.506C812.013 405.495 826.872 416.24 830.238 418.61C835.507 422.319 839.728 427.105 843.976 431.893C856.667 446.197 867.1 461.635 870.305 480.904C871.316 486.981 871.065 492.659 867.276 497.835C861.607 505.579 849.111 511.873 839.711 513.356C826.285 518.454 814.875 518.593 802.379 527.134C793.44 507.066 787.575 482.057 797.747 461.373C801.419 453.908 806.637 446.207 808.384 438.039C810.65 427.44 807.021 416.147 809.256 405.506Z" id="gluteus-maximus-left"/>
	<path fill="hsl(87.92400000000089, 80%, 60%)" d="M925.335 925.403C927.437 923.255 929.543 921.064 932.049 919.385C939.738 914.232 953.743 908.888 953.087 897.224C953.013 895.904 952.28 894.72 951.253 893.932C943.159 887.721 934.382 891.925 931.865 876.911C930.96 871.516 930.58 863.488 931.307 858.103C931.832 854.219 933.096 850.397 933.75 846.516C935.869 833.935 937.804 821.161 941.429 808.901C946.901 790.396 954.457 772.828 957.629 753.631C960.575 735.796 957.902 717.951 954.376 700.464C952.442 690.872 950.148 682.155 950.912 672.232C951.588 663.468 954.733 651.906 958.545 643.941C961.867 636.999 965.866 630.539 968.312 623.183C980.459 586.649 978.284 526.941 972.118 488.675C969.801 474.29 966.193 460.241 963.374 445.995C962.646 442.316 963.331 438.436 962.57 434.769C960.744 425.969 956.377 417.126 955.119 408.365C953.792 399.127 955.456 389.592 954.533 380.336C953.814 373.126 950.499 367.086 951.168 359.608C952.253 347.495 960.232 327.418 967.017 317.432C967.522 316.689 967.509 316.912 968.079 316.21C968.157 316.114 968.861 315.055 968.905 314.989C969.635 313.918 970.09 313.456 971.236 312.88C972.322 313.946 979.131 333.47 979.737 335.898C980.301 338.153 980.513 340.498 980.537 342.818C980.602 349.062 979.525 355.39 979.836 361.611C979.988 364.653 980.945 367.432 981.307 370.41C982.51 380.323 992.523 398.124 996.975 407.512C997.967 409.605 999.604 411.322 999.844 413.689L999.569 413.888C993.741 405.539 979.631 375.466 979.13 364.797C978.774 357.197 980.836 348.468 979.598 341.158C978.04 331.957 973.473 323.457 970.8 314.576C962.799 326.747 949.492 352.147 952.523 366.683C953.422 370.992 955.248 375.366 955.56 379.753C956.156 388.126 954.342 397.189 955.578 405.382C956.823 413.635 960.796 421.775 962.394 430.07C963.641 436.539 964.388 443.102 965.611 449.58C968.018 462.329 970.997 474.976 973.068 487.784C979.564 525.971 979.897 564.952 974.054 603.245C972.921 610.356 971.603 618.318 969.062 625.053C966.486 631.882 962.425 637.902 959.38 644.485C955.829 652.161 952.411 665.729 951.665 674.125C950.945 682.23 953.314 687.896 954.742 695.599C958.283 714.707 961.619 733.591 958.78 753.093C956.193 770.857 949.496 787.034 944.058 803.968C938.469 821.368 931.44 856.491 932.643 874.24C932.989 879.342 936.556 883.425 936.835 886.282C941.34 888.06 946.049 889.666 950.389 891.809C952.061 893.92 953.468 895.824 954.609 898.283C949.505 911.925 944.128 913.289 932.546 920.724C929.677 922.565 927.28 925.099 924.346 926.784C916.511 926.9 900.56 928.996 894.497 923.545C892.264 921.539 891.759 918.623 891.707 915.755C891.551 907.022 895.561 898.558 895.727 889.935C895.854 883.353 892.505 877.024 893.467 870.451C895.479 856.711 900.979 843.164 901.195 829.056C901.312 821.352 899.614 813.306 898.563 805.699C896.264 789.051 893.081 769.965 893.12 753.412C893.17 732.35 902.526 712.135 901.249 692.494C900.868 686.617 898.441 682.119 897.611 676.536C896.985 672.327 897.846 667.886 897.144 663.721C896.043 657.18 894.031 650.638 892.674 644.115C890.649 634.382 888.416 624.476 886.948 614.647C886.383 610.861 886.246 607.016 885.686 603.228C884.357 594.232 882.81 585.82 882.344 576.665C881.738 564.778 880.306 552.819 880.34 540.928C880.356 535.452 883.642 518.481 881.51 514.729C879.943 514.356 879.94 514.51 878.488 515.266C877.625 516.774 877.21 517.809 877.633 519.56C877.777 520.154 877.991 520.728 878.172 521.312C879.986 527.147 878.963 554.531 878.634 562.287C877.667 585.064 874.153 608.38 869.784 630.734C868.161 639.033 866 647.237 864.463 655.545C863.415 661.215 862.959 666.969 862.04 672.656C860.968 679.294 859.338 685.941 858.693 692.631C857.61 703.881 861.01 713.81 863.144 724.614C865.056 734.298 866.5 744.213 866.6 754.089C866.837 777.484 859.8 800.262 859.459 823.479C859.366 829.776 859.186 836.467 860.174 842.695C861.774 852.771 865.367 863.11 865.853 873.283C866.181 880.158 862.753 886.906 863.507 893.877C864.388 902.032 869.893 913.604 866.134 921.709C864.946 924.27 861.971 925.514 859.61 926.765C851.155 926.785 842.688 926.901 834.235 926.785C831.953 924.542 829.651 922.191 826.963 920.43C818.31 914.763 805.181 910.575 804.671 898.041C804.605 896.424 805.058 895.033 806.255 893.906C807.836 892.417 810.171 891.613 812.152 890.81C823.63 886.156 826.22 881.514 827.204 869.33C827.9 860.704 826.175 852.617 824.664 844.187C822.588 832.603 820.528 820.657 817.169 809.377C811.253 789.513 803.207 771.189 800.868 750.326C799.444 737.619 800.229 723.82 802.215 711.186C803.947 700.17 810.168 682.332 808.054 671.822C806.701 665.094 804.091 653.491 801.817 647.253C799.506 640.913 795.828 635.068 793.015 628.945C786.277 614.276 781.817 595.714 781.456 579.626C781.202 568.311 781.341 556.957 781.341 545.638C781.34 538.207 781.014 530.582 781.567 523.174C782.406 511.956 784.529 500.405 786.352 489.292C788.207 477.981 790.81 466.818 792.946 455.564C794.883 445.365 796.215 434.988 798.589 424.881C800.226 417.915 803.468 411.083 804.791 404.107C805.786 398.862 803.338 392.569 804.046 386.931C804.916 379.997 807.987 367.626 807.336 361.136C805.618 344.027 797.073 328.765 788.409 314.276C785.423 322.56 780.54 332.656 779.816 341.424C778.866 352.926 782.168 363.468 778.525 375.085C775.406 385.036 770.187 394.518 765.473 403.783C755.575 423.236 744.658 442.228 736.366 462.451C739.058 468.791 740.635 475.166 740.932 482.07C741.295 490.497 739.243 498.92 738.316 507.264C737.141 517.84 736.691 528.752 734.681 539.184C733.268 540.458 732.592 540.229 730.735 540.36C729.564 539.766 729.07 539.672 728.564 538.374C727.551 535.776 726.815 518.774 726.728 518.713C721.702 526.956 725.929 542.806 716.927 548.416C715.29 548.655 715.254 548.607 713.802 547.798C712.848 546.333 712.459 545.359 712.193 543.636L711.332 543.373C709.359 546.755 710.754 551.083 706.792 553.144C705.118 553.197 703.661 553.239 702.415 551.957C699.593 549.051 699.965 542.901 700.216 539.154C700.633 532.929 702.919 525.724 702.012 519.625C701.141 525.47 699.221 542.903 694.557 546.375C693.741 546.982 693.278 546.798 692.303 546.813C690.709 545.723 689.724 544.737 689.377 542.757C688.963 540.393 689.276 537.868 689.309 535.48C689.343 533.003 688.914 530.569 689.144 528.079C689.949 519.326 692.997 510.723 693.264 501.917C688.76 500.572 683.845 507.411 679.583 501.757C679.888 497.483 685.441 493.925 687.989 490.53C694.499 481.856 695.516 468.842 706.21 459.945C707.632 458.762 708.543 458.082 710.392 457.999L712.308 459.673C711.898 450.163 714.494 441.077 715.647 431.72C719.422 401.075 720.608 368.309 736.335 340.815C736.317 344.979 736.255 349.161 736.403 353.322C736.598 358.818 737.486 365.371 741.881 369.211C746.199 372.983 750.905 372.252 756.132 371.704L750.552 385.832C750.574 386.117 750.604 386.402 750.617 386.689C750.764 390.044 745.679 400.518 744.296 404.21C739.398 417.282 735.368 430.768 731.47 444.167C729.74 450.112 729.415 457.588 726.634 463.009C722.829 464.598 716.382 464.228 712.594 462.698C712.047 462.477 712.258 462.634 711.973 462.056C711.38 460.851 710.878 459.927 709.915 458.96C706.855 459.455 703.157 465.136 701.398 467.553C694.514 477.014 692.323 488.736 683.776 497.031C682.541 498.23 680.882 499.604 680.509 501.316C681.572 502.379 682.328 502.875 683.927 502.827C687.085 502.733 690.788 499.765 693.755 500.255C696.078 505.87 692.263 513.649 691.401 519.242C690.546 524.792 688.748 541.366 692.85 545.347L694.41 545.545C699.535 540.786 698.093 519.453 702.735 515.687C703.907 517.102 704.162 518.24 704.012 520.129C703.267 529.523 699.25 541.893 702.368 550.963C703.503 552.099 703.399 552.035 705.008 552.05C707.174 551.028 708.628 549.46 709.375 547.146C711.955 539.162 709.303 517.637 715.322 512.526C716.398 513.972 716.65 514.865 716.358 516.681C714.747 526.677 712.809 535.993 713.316 546.261C714.555 547.338 714.805 547.157 716.39 547.188C718.708 546.015 719.642 543.988 720.442 541.594C721.939 537.118 723.843 518.241 725.42 516.527L726.444 516.679C729.287 520.557 727.799 525.303 728.633 529.927C729.18 532.966 728.536 537.368 731.072 539.565L732.216 539.459C735.412 534.549 740.834 482.495 739.354 475.684C738.297 470.821 735.53 465.443 736.301 460.423C737.391 453.334 742.777 444.993 746.077 438.625C754.912 421.58 773.076 390.351 777.684 373.474C783.388 352.585 773.876 344.82 785.161 320.976C786.063 319.07 786.115 316.708 787.187 314.905C787.741 313.974 787.997 313.887 788.971 313.651C795.003 321.029 804.931 340.797 807.075 350.163C808.152 354.868 808.196 361.802 807.711 366.596C806.981 373.824 805.564 381.106 805.256 388.358C805.013 394.083 806.308 400.771 805.358 406.311C804.217 412.964 800.904 419.539 799.433 426.251C796.935 437.646 795.352 449.246 793.076 460.688C789.895 476.673 786.927 492.347 784.634 508.488C783.848 514.024 782.785 519.589 782.521 525.181C782.088 534.337 782.32 543.586 782.307 552.755C782.273 578.335 782.409 597.871 791.479 622.575C793.995 629.428 797.796 635.516 800.807 642.122C804.733 650.735 807.494 661.937 808.935 671.255C810.863 683.724 805.689 698.08 803.46 710.392C801.788 719.627 800.694 730.914 801.155 740.291C802.421 766.016 810.34 782.911 817.546 806.75C820.777 817.438 822.891 828.289 824.81 839.274C825.779 844.823 828.325 854.489 828.732 859.438C829.243 865.636 827.463 883.036 822.641 887.263C818.504 890.89 806.634 890.783 805.922 897.393C805.514 901.178 808.204 905.765 810.649 908.519C816.692 915.326 826.382 917.162 834.319 925.403C840.878 925.477 859.951 927.487 864.458 922.572C866.618 920.216 866.108 913.865 865.794 910.865C865.142 904.642 862.297 898.396 862.304 892.189C862.311 885.186 865.291 878.596 864.65 871.627C863.782 862.173 860.674 852.917 859.152 843.553C857.734 834.841 858.209 824.737 858.651 815.933C858.98 809.392 860.386 802.998 861.379 796.541C863.498 782.778 866.014 767.617 865.704 753.713C865.486 743.968 863.834 733.681 861.865 724.119C859.781 713.996 856.702 704.541 857.478 694.026C858.04 686.408 860.057 679.445 861.523 672.026C862.358 667.802 861.497 663.285 862.3 659.034C866.606 636.226 873.575 614.195 874.296 590.771C874.326 589.805 874.455 589.274 874.871 588.437C878.216 581.715 878.065 540.74 877.823 531.552C877.689 526.486 876.314 520.561 877.313 515.615C877.66 513.896 878.152 513.295 879.742 512.648C881.268 513.47 882.321 514.295 882.903 516.004C884.367 520.303 881.786 532.921 881.714 538.286C881.502 553.947 882.836 570.081 884.144 585.69C885.842 605.958 890.088 626.387 894.161 646.303C895.181 651.293 896.639 656.207 897.484 661.232C898.281 665.973 898.438 670.786 899.11 675.54C900.053 682.209 902.312 688.405 902.512 695.22C903.02 712.587 895.182 729.176 894.659 746.641C894.431 754.233 894.236 762.215 894.974 769.772C897.081 791.371 902.673 812.869 901.65 834.699C901.102 846.373 896.614 856.95 894.964 868.267C893.814 876.162 896.991 883.753 896.597 891.602C896.186 899.796 892.421 907.636 892.776 915.853C892.894 918.588 893.289 921.687 895.796 923.258C902.638 927.546 917.225 925.397 925.335 925.403Z" id="skin-back"/>
	<path fill="hsl(225.4320000000007, 80%, 60%)" d="M712.308 459.673C711.898 450.163 714.494 441.077 715.647 431.72C719.422 401.075 720.608 368.309 736.335 340.815C736.317 344.979 736.255 349.161 736.403 353.322C736.598 358.818 737.486 365.371 741.881 369.211C746.199 372.983 750.905 372.252 756.132 371.704L750.552 385.832C741.056 402.869 731.052 440.951 726.314 460.554C725.999 461.857 725.742 462.189 724.387 462.526C721.106 463.341 716.6 462.709 713.436 461.657C712.952 460.972 712.557 460.482 712.308 459.673Z" id="forearm-extensors-lateral-left"/>
	<path fill="hsl(2.9400000000005093, 80%, 60%)" d="M965.457 270.332C965.941 270.965 965.905 271.27 966.007 272.069C967.263 281.896 961.755 292.235 959.884 301.762C958.081 310.938 957.769 320.046 954.974 329.1C953.333 334.42 949.791 339.125 948.282 344.464C945.415 354.602 945.642 364.751 940.649 374.401C934.101 387.054 922.958 398.09 914.424 409.477C914.189 402.468 914.386 394.961 911.851 388.335C907.395 375.539 899.431 366.361 894.096 354.413C892.534 350.916 891.599 347.023 890.583 343.333C890.692 343.1 890.805 342.868 890.911 342.634C891.971 340.302 893.146 338.298 894.671 336.228C902.057 326.201 908.986 316.837 914.019 305.353C915.973 300.894 916.578 295.036 919.044 291.011C920.076 289.327 921.12 288.518 923 288.005C926.044 289.167 928.929 289.568 932.172 289.667C947.138 290.121 955.496 279.833 965.457 270.332Z" id="latissimus-dorsi-right"/>
	<path fill="hsl(140.44800000000032, 80%, 60%)" d="M795.14 269.531C802.085 275.723 806.321 283.114 815.144 287.435C822.534 291.054 830.506 290.038 838.039 287.421C841.053 293.58 842.875 300.203 845.57 306.49C850.84 318.787 858.247 329.138 866.288 339.721C866.89 360.098 853.111 367.96 847.684 386.091C845.756 393.283 844.193 400.132 843.992 407.633C842.35 406.296 841.018 404.77 839.683 403.138C832.038 393.792 823.027 383.058 818.021 372.086C814.39 364.128 814.215 355.099 812.049 346.755C810.052 339.064 806.172 331.788 803.949 324.121C801.879 316.984 802.539 310.454 801.294 303.358C799.169 291.246 793.891 282.409 795.14 269.531Z" id="latissimus-dorsi-left"/>
	<path fill="hsl(277.95600000000013, 80%, 60%)" d="M933.373 523.349C942.256 526.416 948.567 530.807 952.75 539.408C959.15 552.568 956.261 571.132 955.545 585.333C955.272 590.731 955.463 596.215 954.82 601.583C954.143 607.236 952.833 612.816 951.976 618.444L943.714 669.437C941.703 663.612 935.82 653.304 934.883 649.253C934.188 646.249 942.676 618.404 943.702 613.646C944.408 610.365 944.711 607.072 944.943 603.73L942.973 602.009C938.731 619.334 934.175 636.283 926.214 652.359C920.517 663.863 913.333 674.647 908.487 686.576L907.805 686.895L908.295 684.341L907.444 684.268C907.499 684.154 907.566 684.044 907.61 683.926C909.241 679.609 909.639 655.264 910.245 648.975C911.951 631.251 915.376 614.036 918.074 596.482C921.806 572.191 922.918 545.812 933.373 523.349Z" id="hamstrings-right"/>
	<path fill="hsl(55.46400000000085, 80%, 60%)" d="M942.973 602.009C943.036 601.803 943.101 601.598 943.16 601.391C945.126 594.527 944.418 586.371 946.809 579.815L947.242 580.146C947.638 587.968 946.187 596.034 944.943 603.73L942.973 602.009Z" id="path-58"/>
	<path fill="hsl(192.97200000000066, 80%, 60%)" d="M826.608 522.7C834.013 530.985 839.503 582.023 841.626 594.856C843.24 604.611 845.78 614.478 846.95 624.257C849.522 644.269 851.213 664.385 852.017 684.546C848.532 680.959 846.216 675.51 843.783 671.114C833.743 652.982 825.979 635.473 820.348 615.421C818.546 609.007 816.654 602.786 816.369 596.087C814.451 590.618 813.87 584.661 812.982 578.951C811.222 598.478 819.349 630.504 826.446 648.636C822.061 655.32 818.93 662.144 815.732 669.439C811.451 638.621 797.206 570.153 806.021 542.17C809.261 531.883 817.589 527.382 826.608 522.7Z" id="hamstrings-left"/>
	<path fill="hsl(330.4800000000014, 80%, 60%)" d="M768.136 353.109C765.749 354.945 763.216 357.343 760.289 358.132C757.12 356.418 761.954 340.292 757.952 334.112C756.606 332.033 754.821 330.836 752.417 330.366C744.149 332.891 748.604 344.55 743.269 348.957C743.056 348.755 742.722 348.466 742.54 348.21C737.832 341.56 737.936 318.844 738.978 311.017C739.971 303.555 741.802 296.258 744.966 289.401C750.55 277.299 771.632 247.78 782.007 239.818C783.834 254.971 786.091 270.721 784.455 285.994C783.149 298.185 780.823 310.561 778.309 322.564C777.367 327.061 772.631 343.289 772.767 345.904C772.793 346.413 773.205 346.823 773.424 347.283C772.454 350.157 770.909 351.426 768.281 352.845L768.136 353.109Z" id="triceps-brachii-left"/>
	<path fill="hsl(107.9880000000012, 80%, 60%)" d="M976.482 239.623C982.524 243.508 1004.91 273.237 1009.22 280.688C1012.07 285.609 1014.32 291.012 1016.22 296.366C1021.32 310.743 1021.19 324.672 1018.4 339.405C1017.88 342.136 1017.58 345.997 1016.31 348.399C1015.76 349.459 1015.83 349.221 1014.82 349.551C1011.11 345.205 1013.42 334.675 1008.65 331.035C1008.39 330.837 1008.11 330.667 1007.84 330.483C1007.27 330.328 1007.25 330.286 1006.56 330.301C1002.26 330.389 1000.79 334.639 998.21 337.224C998.016 337.418 997.817 337.608 997.621 337.8C998.455 340.944 1000.24 357.085 998.872 359.522C995.745 356.05 991.789 354.322 988.934 350.268C984.323 343.723 982.485 334.334 980.75 326.611C974.372 298.212 971.27 268.499 976.482 239.623Z" id="triceps-brachii-right"/>
	<path fill="hsl(245.496000000001, 80%, 60%)" d="M895.869 513.316C906.016 512.816 918.353 518.812 928.221 521.803C923.374 534.108 921.336 547.832 918.906 560.799C916.356 573.966 913.972 587.164 911.752 600.391C910.217 609.817 909.412 619.704 906.484 628.812C905.411 635.152 904.158 640.526 901.275 646.305C894.887 625.322 892.289 596.172 891.911 573.997C891.728 563.322 889.959 519.435 895.869 513.316Z" id="adductor-group-inner-thigh-right"/>
	<path fill="hsl(23.004000000000815, 80%, 60%)" d="M857.203 513.227C858.784 513.176 860.592 513.003 862.149 513.3C863.414 513.541 864.465 514.385 865.128 515.464C870.154 523.638 867.256 595.822 865.762 608.302C864.149 621.783 861.418 635.504 858.213 648.686C856.619 644.161 855.779 639.544 854.886 634.846C850.388 621.539 849.166 606.686 846.985 592.839C845.435 583.002 843.242 573.238 841.367 563.456C838.71 549.596 836.293 535.341 831.884 521.916C840.266 518.733 849.005 517.064 857.203 513.227Z" id="adductor-group-inner-thigh-left"/>
	<path fill="hsl(160.51200000000063, 80%, 60%)" d="M1020.9 343.605C1022.46 343.51 1022.84 343.335 1024.2 344.174C1038.85 374.462 1040.11 410.057 1044.37 442.91C1044.95 447.378 1047.67 453.106 1047.18 457.406C1047.04 458.714 1046.17 459.528 1045.15 460.287C1042.22 462.473 1038.53 463.654 1034.9 462.81C1032.67 462.292 1032.2 460.973 1031.01 459.201C1031.18 458.584 1031.22 458.548 1031.22 457.799C1031.22 447.365 1008.07 378.365 1000.57 371.794C1006.41 372.184 1010.61 372.49 1016.16 370.149C1018.46 366.948 1020.25 363.901 1021.15 360.045C1022.26 355.316 1022.3 348.271 1020.9 343.605Z" id="forearm-extensors-lateral-right"/>
	<path fill="hsl(298.02000000000044, 80%, 60%)" d="M928.995 223.759C946.911 223.21 953.921 225.101 969.603 233.924C965.502 249.118 966.196 259.903 953.951 271.975C953.003 272.632 952.05 273.281 951.091 273.922C939.989 281.326 933.821 279.563 921.436 277.068C924.33 265.758 924.375 255.034 925.698 243.58C926.467 236.917 928.14 230.417 928.995 223.759Z" id="teres-major-right"/>
	<path fill="hsl(75.52800000000025, 80%, 60%)" d="M918.877 782.386C924.014 782.128 929.988 781.28 934.884 783.124C937.231 784.009 939.543 785.882 940.398 788.321C941.571 791.667 940.218 797.753 939.261 801.092C937.626 806.795 934.798 812.296 932.699 817.857C928.969 827.741 925.037 837.488 921.135 847.301C918.851 853.044 916.921 858.92 914.153 864.456C912.98 868.35 911.813 871.899 909.562 875.314C908.814 853.389 907.562 830.638 903.728 809.017C902.803 803.801 900.286 792.56 903.68 788.099C907.204 783.467 913.582 783.097 918.877 782.386Z" id="soleus-right"/>
	<path fill="hsl(213.03600000000006, 80%, 60%)" d="M827.047 782.243C834.275 782.105 842.335 781.574 849.26 783.932C852.26 784.953 854.69 786.541 856.003 789.517C857.195 792.217 857.157 795.164 856.975 798.046C856.057 812.588 852.371 826.906 851.727 841.457C851.268 851.81 853.021 867.074 849.55 876.621C846.27 865.508 841.202 854.67 836.822 843.947C833.388 835.541 830.468 826.978 827.141 818.541C824.397 811.583 820.914 804.508 819.318 797.182C818.652 794.126 818.312 791.013 819.63 788.063C821.151 784.657 823.817 783.536 827.047 782.243Z" id="soleus-left"/>
	<path fill="hsl(350.54399999999987, 80%, 60%)" d="M811.175 224.051C817.111 223.47 823.102 223.628 829.06 223.636C833.467 240.921 833.442 259.099 836.385 276.733C829.834 278.969 824.586 281.023 817.686 279.056C811.651 276.759 806.5 273.792 802.031 269.036C793.784 260.257 789.236 245.199 789.599 233.228C796.923 230.107 803.466 226.38 811.175 224.051Z" id="teres-major-left"/>
	<path fill="hsl(128.0520000000015, 80%, 60%)" d="M918.101 682.989C919.221 682.812 920.677 682.485 921.79 682.758C924.839 683.506 926.828 688.148 928.272 690.634C928.438 702.95 926.693 714.739 925.376 726.933C924.645 733.695 924.329 740.535 923.413 747.27C922.384 754.834 920.555 762.421 920.303 770.057C916.654 772.989 913.741 775.228 909.015 776.013C907.457 775.554 905.8 774.911 904.446 774.014C901.372 771.98 899.921 765.616 899.432 762.153C896.488 741.284 905.094 700.162 918.101 682.989Z" id="gastrocnemius-medial-right"/>
	<path fill="hsl(265.5600000000013, 80%, 60%)" d="M836.173 682.848C837.045 682.772 837.964 682.656 838.838 682.699C840.949 682.802 842.379 684.24 843.687 685.78C847.498 690.265 849.115 696.693 850.94 702.179C858.505 724.925 861.255 745.761 858.943 769.611C857.682 771.481 856.111 773.1 854.6 774.769C853.722 775.074 852.822 775.313 851.907 775.483C847.016 776.402 843.12 773.072 839.363 770.478C839.305 766.839 838.225 762.871 837.633 759.263C835.602 746.89 830.048 701.73 831.854 691.491C832.467 688.013 834.163 685.644 836.173 682.848Z" id="gastrocnemius-medial-left"/>
	<path fill="hsl(43.06800000000112, 80%, 60%)" d="M819.37 678.659C823.644 679.907 825.678 683.532 828.237 686.915C829.111 697.578 827.312 708.392 827.018 719.054C826.579 734.941 828.537 751.902 831.399 767.512C826.874 771.043 824.75 771.884 818.989 771.716C816.616 771.526 814.66 770.934 813.061 769.061C804.23 758.722 804.394 730.081 805.971 716.567C807.105 706.85 809.148 690.596 814.938 682.717C816.084 681.157 817.864 679.863 819.37 678.659Z" id="gastrocnemius-lateral-left"/>
	<path fill="hsl(180.57600000000093, 80%, 60%)" d="M937.705 679.359C938.718 679.312 939.869 679.196 940.872 679.341C942.658 679.598 943.934 681.557 944.802 682.989C951.726 694.413 955.084 722.464 954.714 736.072C954.489 742.569 953.576 749.023 951.991 755.328C950.521 761.393 948.657 768.089 943.056 771.507C939.449 771.881 933.814 772.106 930.788 769.763C926.265 766.262 930.389 752.662 931.163 747.736C933.119 735.282 933.578 720.896 932.565 708.41C932.155 703.362 930.773 698.294 930.573 693.254C930.335 687.274 933.854 683.446 937.705 679.359Z" id="gastrocnemius-lateral-right"/>
	<path fill="hsl(318.08400000000074, 80%, 60%)" d="M793.454 198.693C798.251 199.36 805.112 206.857 809.464 209.536C812.937 211.674 816.728 213.413 820.39 215.204C817.773 215.316 815.107 215.369 812.503 215.65C791.773 217.891 775.973 231.914 763.589 247.55C759.436 253.35 755.415 259.243 751.528 265.224C751.611 254.579 754.839 242.574 759.195 232.897C765.882 218.041 778.017 204.622 793.454 198.693Z" id="deltoid-posterior-left"/>
	<path fill="hsl(95.59200000000055, 80%, 60%)" d="M962.286 197.992C962.407 198.029 962.53 198.062 962.65 198.102C977.989 203.242 990.445 216.667 997.445 230.889C1001.45 239.031 1007.91 255.732 1004.84 264.688C1004.84 264.499 1004.87 264.31 1004.85 264.122C1004.48 260.747 997.694 251.816 994.924 249.655C994.591 246.056 986.878 238.628 984.125 235.902C970.73 222.641 955.274 215.33 936.445 215.361C939.612 213.196 943.147 211.908 946.529 210.153C952.734 206.934 957.385 202.864 962.286 197.992Z" id="deltoid-posterior-right"/>
	<path fill="hsl(233.10000000000036, 80%, 60%)" d="M883.835 352.477L885.51 353.178C887.28 358.309 890.016 363.34 892.576 368.114C903.493 388.47 908.094 395.436 905.35 419.323C901.746 423.167 897.553 426.545 893.287 429.62L883.352 438.707C883.322 437.559 883.33 436.416 883.332 435.269C883.354 425.186 888.753 415.032 888.674 403.082C888.563 386.221 883.132 369.263 883.835 352.477Z" id="erector-spinae-right"/>
	<path fill="hsl(10.608000000000175, 80%, 60%)" d="M873.817 353.615C876.156 356.521 872.97 375.05 872.335 379.154C870.533 390.82 868.819 404.005 870.907 415.753C872.251 423.317 874.737 430.067 875.457 437.857C872.125 435.493 868.995 432.704 865.819 430.126C860.54 426.134 855.978 422.495 852.361 416.896C850.452 397.196 857.804 383.282 866.875 366.642C869.226 362.328 871.055 357.669 873.817 353.615Z" id="erector-spinae-left"/>
	<path fill="hsl(148.11599999999999, 80%, 60%)" d="M773.424 347.283C777.628 355.619 771.636 371.724 768.865 380.093C763.88 395.151 757.115 408.47 749.265 422.194C744.803 429.995 739.363 438.111 736.161 446.489L735.634 444.028C741.021 421.081 749.351 397.661 758.474 375.933C760.003 372.289 761.455 368.457 763.333 364.978C765.237 361.451 768.215 358.278 769.196 354.321L768.136 353.109L768.281 352.845C770.909 351.426 772.454 350.157 773.424 347.283Z" id="forearm-flexors-medial-left"/>
	<path fill="hsl(285.6240000000016, 80%, 60%)" d="M982.806 347.313C986.844 352.276 990.376 357.631 993.348 363.297C998.944 373.858 1022.96 433.387 1020.45 441.53C1020.28 442.467 1020.41 442.578 1019.68 443.259C1017.9 435.104 1010.61 425.591 1006.41 418.486C994.319 398.027 982.969 371.354 982.806 347.313Z" id="forearm-flexors-medial-right"/>
	<path fill="hsl(63.132000000001426, 80%, 60%)" d="M790.357 516.104L791.034 516.814C797.243 545.28 797.64 574.654 799.632 603.59C799.998 608.914 801.992 618.914 800.864 623.614L800.151 623.176C791.238 602.059 786.537 567.826 787.185 544.645C787.453 535.031 788.842 525.586 790.357 516.104Z" id="thigh-outer-left"/>
	<path fill="hsl(200.64000000000124, 80%, 60%)" d="M967.777 516.716L968.566 517.465C976.485 540.709 968.879 599.458 959.221 621.876C959.096 622.866 959.184 622.844 958.53 623.712C958.383 616.649 959.053 609.605 959.365 602.554C960.26 582.343 961.846 562.613 964.026 542.489C964.956 533.906 967.844 525.356 967.777 516.716Z" id="thigh-outer-right"/>
	<path fill="hsl(338.14800000000105, 80%, 60%)" d="M964.997 193.671C970.158 194.497 975.39 195.731 980.32 197.468C991.815 201.518 1001.14 208.246 1006.33 219.522C1009.64 226.693 1010.97 238.052 1008.21 245.592L1007.91 246.082C1005.54 242.76 1004.91 237.19 1003.29 233.282C995.269 213.858 982.795 204.024 964.997 193.671Z" id="deltoid-lateral-right"/>
	<path fill="hsl(115.65600000000086, 80%, 60%)" d="M792.07 193.846L792.184 193.962L792 194.66C788.009 196.367 783.675 198.778 780.098 201.236C777.766 202.838 775.55 205.252 773.432 207.179C761.638 217.911 754.017 229.996 750.737 245.778C750.534 246.752 750.352 247.235 749.622 247.975C749.144 246.569 748.758 245.16 748.473 243.703C746.576 233.992 749.18 225.084 754.677 216.975C763.134 204.501 777.494 196.643 792.07 193.846Z" id="deltoid-lateral-left"/>
	<path fill="hsl(253.16400000000067, 80%, 60%)" d="M851.007 127.055C856.009 127.175 859.116 128.722 863.427 131.105C863.489 138.807 861.925 145.247 857.536 151.781C856.138 153.358 855.681 154.265 853.623 154.856C850.481 152.219 851.142 143.97 850.253 139.891C849.681 137.268 848.565 134.627 847.64 132.106L851.007 127.055Z" id="neck-back-left"/>
	<path fill="hsl(30.67200000000048, 80%, 60%)" d="M905.376 127.271C907.209 127.159 907.335 126.938 908.823 128.15C911.465 134.012 908.276 148.307 906.303 154.474C904.653 154.98 904.132 154.599 902.519 154.088C900.413 148.436 896.475 143.064 895.283 137.133C894.864 135.044 895.014 132.834 896.281 131.05C898.323 128.175 902.171 127.905 905.376 127.271Z" id="neck-back-right"/>
	<path fill="hsl(168.1800000000003, 80%, 60%)" d="M949.657 378.009L950.685 378.942C952.039 382.945 952.04 390.419 951.227 394.59C949.419 403.869 938.275 407.279 931.122 411.941L930.511 412.108L930.317 411.156C932.476 407.181 935.34 403.792 937.753 399.993C940.233 396.089 942.245 391.812 944.343 387.688C945.788 384.848 947.22 379.854 949.657 378.009Z" id="rhomboid-major-right"/>
	<path fill="hsl(305.6880000000001, 80%, 60%)" d="M810.15 378.043C814.192 382.141 819.746 395.699 823.352 401.548C824.842 403.966 829.249 408.455 829.477 411.114C822.079 408.73 816.063 403.802 809.299 400.118C808.596 394.65 807.13 382.898 810.15 378.043Z" id="rhomboid-major-left"/>
	<path fill="hsl(83.19600000000173, 80%, 60%)" d="M736.161 446.489C735.584 449.297 734.524 452.024 733.543 454.714C733.572 451.19 734.805 447.458 735.634 444.028L736.161 446.489Z" id="path-87"/>
	<path fill="hsl(220.70400000000154, 80%, 60%)" d="M1020.45 441.53C1022.38 443.558 1022.72 446.945 1022.73 449.658C1021.82 447.548 1021.03 445.116 1019.68 443.259C1020.41 442.578 1020.28 442.467 1020.45 441.53Z" id="path-88"/>
</svg>
